<svg width="64" height="64" viewBox="0 0 64 64" fill="none" xmlns="http://www.w3.org/2000/svg">
<circle cx="32" cy="32" r="30" fill="#FFFFFF" stroke="#000000" stroke-width="4"/>
<path d="M15.8 46L12.1 33.15C11.9667 32.75 11.9917 32.3583 12.175 31.975C12.3583 31.5917 12.65 31.3333 13.05 31.2L16 30.2V19C16 18.1667 16.2917 17.4667 16.875 16.9C17.4583 16.3333 18.1667 16.0333 19 16H26.5V10H37.5V16H45C45.825 16 46.5313 16.2938 47.1188 16.8813C47.7063 17.4688 48 18.175 48 19V30.25L51 31.2C51.3667 31.3333 51.6417 31.5833 51.825 31.95C52.0083 32.3167 52.0333 32.7 51.9 33.1L48.2 46C46.6 45.8333 45.1083 45.35 43.725 44.55C42.3417 43.75 41.1167 42.8 40.05 41.7C38.9833 42.9 37.7719 43.9167 36.4158 44.75C35.0596 45.5833 33.5877 46 32 46C30.4123 46 28.9404 45.5833 27.5843 44.75C26.2281 43.9167 25.0167 42.9 23.95 41.7C22.8833 42.8 21.6583 43.75 20.275 44.55C18.8917 45.35 17.4 45.8333 15.8 46ZM12 54V51H16C17.4 51 18.7833 50.7833 20.15 50.35C21.5167 49.9167 22.8 49.3 24 48.5C25.2 49.3 26.4833 49.9 27.85 50.3C29.2167 50.7 30.6 50.9 32 50.9C33.4 50.9 34.7833 50.7 36.15 50.3C37.5167 49.9 38.8 49.3 40 48.5C41.2 49.3 42.4833 49.9167 43.85 50.35C45.2167 50.7833 46.6 51 48 51H52V54H48C46.6333 54 45.2833 53.825 43.95 53.475C42.6167 53.125 41.3 52.6167 40 51.95C38.7 52.6167 37.3667 53.125 36 53.475C34.6333 53.825 33.3 54 32 54C30.7 54 29.3667 53.825 28 53.475C26.6333 53.125 25.3 52.6167 24 51.95C22.7 52.6167 21.3866 53.125 20.0599 53.475C18.7332 53.825 17.3733 54 15.9802 54H12ZM19 29.25L32 25.05L45 29.3V19H19V29.25ZM31.975 43C33.6917 43 35.2167 42.3167 36.55 40.95C37.8833 39.5833 39.0333 38.3167 40 37.15C40.8333 38.15 41.7583 39.125 42.775 40.075C43.7917 41.025 44.9 41.85 46.1 42.55L48.65 33.6L32 28.2L15.3 33.6L17.9 42.45C19.0667 41.8167 20.175 41.025 21.225 40.075C22.275 39.125 23.2 38.15 24 37.15C25 38.35 26.15 39.625 27.45 40.975C28.75 42.325 30.2583 43 31.975 43Z" fill="#000000"/>
</svg>
