<svg width="64" height="64" viewBox="0 0 64 64" fill="none" xmlns="http://www.w3.org/2000/svg">
<circle cx="32" cy="32" r="30" fill="white" stroke="black" stroke-width="4"/>
<path d="M16 43V24C16 20.7667 17.4167 18.65 20.25 17.65C23.0833 16.65 26.3333 16.1 30 16L31.5 13H22V10H42V13H35.5L34 16C37.9667 16.1 41.2917 16.6417 43.975 17.625C46.6583 18.6083 48 20.7333 48 24V43C48 44.9667 47.325 46.625 45.975 47.975C44.625 49.325 42.9667 50 41 50L44 53V54H40L36 50H28L24 54H20V53L23 50C21.0333 50 19.375 49.325 18.025 47.975C16.675 46.625 16 44.9667 16 43ZM41 36H20H44H41ZM32 44C32.8333 44 33.5417 43.7083 34.125 43.125C34.7083 42.5417 35 41.8333 35 41C35 40.1667 34.7083 39.4583 34.125 38.875C33.5417 38.2917 32.8333 38 32 38C31.1667 38 30.4583 38.2917 29.875 38.875C29.2917 39.4583 29 40.1667 29 41C29 41.8333 29.2917 42.5417 29.875 43.125C30.4583 43.7083 31.1667 44 32 44ZM31.9 22H43.3H20.8H31.9ZM20 32H44V26H20V32ZM23 46H41C41.8667 46 42.5833 45.7167 43.15 45.15C43.7167 44.5833 44 43.8667 44 43V36H20V43C20 43.8667 20.2833 44.5833 20.85 45.15C21.4167 45.7167 22.1333 46 23 46ZM31.9 20C27.4333 20 24.5667 20.2417 23.3 20.725C22.0333 21.2083 21.2 21.6333 20.8 22H43.3C42.9 21.5333 42.0333 21.0833 40.7 20.65C39.3667 20.2167 36.4333 20 31.9 20Z" fill="black"/>
</svg>
